M48
;GenerationSoftware,Autodesk,EAGLE,9.6.2*%
;CreationDate,2023-03-01T06:09:14Z*%
FMAT,2
ICI,OFF
METRIC,TZ,000.0000
T6C0.2540
T5C0.8000
T4C0.8128
T3C0.8890
T2C2.7940
T1C3.0480
%
G90
M71
T1
X349250Y88900
X95250Y88900
X215900Y194310
X215900Y262890
X311150Y194310
X311150Y262890
X158750Y88900
X222250Y88900
X285750Y88900
X412750Y88900
T2
X127000Y184150
X76200Y184150
X127000Y254000
X76200Y254000
T3
X457200Y127000
X482600Y127000
X508000Y127000
X533400Y127000
X457200Y101600
X482600Y101600
X508000Y101600
X533400Y101600
X457200Y76200
X482600Y76200
X508000Y76200
X533400Y76200
X457200Y50800
X482600Y50800
X508000Y50800
X533400Y50800
T4
X543560Y215900
X387350Y243840
X441960Y215900
X425450Y266700
X488950Y243840
X527050Y266700
T5
X590550Y41900
X590550Y88900
X590550Y135900
T6
X603250Y12700
X622300Y31750
X628650Y57150
X628650Y82550
X628650Y107950
X628650Y133350
X628650Y158750
X628650Y184150
X628650Y209550
X628650Y234950
X628650Y260350
X628650Y285750
X615950Y304800
X603250Y317500
X584200Y323850
X558800Y323850
X533400Y323850
X508000Y323850
X482600Y323850
X457200Y323850
X431800Y323850
X406400Y323850
X381000Y323850
X355600Y323850
X330200Y323850
X304800Y323850
X279400Y323850
X254000Y323850
X228600Y323850
X203200Y323850
X177800Y323850
X152400Y323850
X127000Y323850
X101600Y323850
X76200Y323850
X63500Y311150
X590550Y311150
X571500Y311150
X546100Y311150
X520700Y311150
X495300Y311150
X469900Y311150
X444500Y311150
X419100Y311150
X393700Y311150
X368300Y311150
X342900Y311150
X317500Y311150
X292100Y311150
X266700Y311150
X241300Y311150
X215900Y311150
X190500Y311150
X165100Y311150
X139700Y311150
X114300Y311150
X88900Y311150
X577850Y298450
X558800Y298450
X533400Y298450
X508000Y298450
X482600Y298450
X457200Y298450
X431800Y298450
X406400Y298450
X381000Y298450
X273050Y6350
X330200Y298450
X304800Y298450
X279400Y298450
X254000Y298450
X228600Y298450
X203200Y298450
X177800Y298450
X152400Y298450
X127000Y298450
X101600Y298450
X76200Y298450
X615950Y196850
X615950Y222250
X615950Y247650
X615950Y171450
X590550Y171450
X565150Y171450
X577850Y158750
X603250Y158750
X615950Y146050
X615950Y120650
X615950Y95250
X615950Y69850
X615950Y44450
X565150Y19050
X590550Y19050
X31750Y57150
X31750Y82550
X31750Y107950
X31750Y133350
X31750Y158750
X31750Y184150
X31750Y209550
X31750Y234950
X31750Y260350
X31750Y285750
X31750Y304800
X19050Y95250
X19050Y120650
X19050Y146050
X19050Y171450
X19050Y196850
X19050Y222250
X19050Y247650
X19050Y273050
X19050Y292100
X57150Y19050
X82550Y19050
X107950Y19050
X133350Y19050
X158750Y19050
X184150Y19050
X19050Y304800
X234950Y19050
X260350Y19050
X285750Y19050
X311150Y19050
X336550Y19050
X361950Y19050
X387350Y19050
X412750Y19050
X438150Y19050
X463550Y19050
X488950Y19050
X514350Y19050
X539750Y19050
X31750Y317500
X50800Y323850
X6350Y285750
X6350Y260350
X6350Y234950
X6350Y209550
X6350Y184150
X6350Y158750
X6350Y133350
X6350Y107950
X6350Y82550
X6350Y57150
X355600Y298450
X19050Y69850
X19050Y44450
X12700Y31750
X25400Y19050
X44450Y6350
X69850Y6350
X95250Y6350
X120650Y6350
X146050Y6350
X171450Y6350
X196850Y6350
X222250Y6350
X247650Y6350
X298450Y6350
X323850Y6350
X349250Y6350
X374650Y6350
X400050Y6350
X425450Y6350
X450850Y6350
X476250Y6350
X501650Y6350
X527050Y6350
X552450Y6350
X577850Y6350
X209550Y19050
M30