G04 EAGLE Gerber RS-274X export*
G75*
%MOMM*%
%FSLAX34Y34*%
%LPD*%
%INedge milling*%
%IPPOS*%
%AMOC8*
5,1,8,0,0,1.08239X$1,22.5*%
G01*
%ADD10C,0.025400*%
%ADD11C,0.101600*%
%ADD12C,0.203200*%
%ADD13C,0.127000*%
%ADD14C,0.076200*%

G36*
X415291Y53329D02*
X415291Y53329D01*
X415291Y53328D01*
X417496Y53521D01*
X417497Y53522D01*
X417498Y53521D01*
X419637Y54094D01*
X419638Y54096D01*
X419639Y54095D01*
X421645Y55031D01*
X421646Y55032D01*
X421647Y55032D01*
X423460Y56301D01*
X423461Y56303D01*
X423462Y56303D01*
X425027Y57868D01*
X425027Y57870D01*
X425029Y57870D01*
X426298Y59683D01*
X426298Y59685D01*
X426299Y59685D01*
X427235Y61691D01*
X427235Y61693D01*
X427236Y61693D01*
X427809Y63832D01*
X427808Y63833D01*
X427809Y63834D01*
X428002Y66039D01*
X428001Y66040D01*
X428002Y66040D01*
X428002Y111760D01*
X428002Y111761D01*
X427809Y113966D01*
X427808Y113967D01*
X427809Y113968D01*
X427236Y116107D01*
X427234Y116108D01*
X427235Y116109D01*
X426299Y118115D01*
X426298Y118116D01*
X426298Y118117D01*
X425029Y119930D01*
X425027Y119931D01*
X425027Y119932D01*
X423462Y121497D01*
X423460Y121497D01*
X423460Y121499D01*
X421647Y122768D01*
X421645Y122768D01*
X421645Y122769D01*
X419639Y123705D01*
X419637Y123705D01*
X419637Y123706D01*
X417498Y124279D01*
X417497Y124278D01*
X417496Y124279D01*
X415291Y124472D01*
X415290Y124471D01*
X415290Y124472D01*
X410210Y124472D01*
X410209Y124471D01*
X410209Y124472D01*
X408004Y124279D01*
X408003Y124278D01*
X408002Y124279D01*
X405863Y123706D01*
X405862Y123704D01*
X405861Y123705D01*
X403855Y122769D01*
X403854Y122768D01*
X403853Y122768D01*
X402040Y121499D01*
X402039Y121497D01*
X402038Y121497D01*
X400473Y119932D01*
X400473Y119930D01*
X400471Y119930D01*
X399202Y118117D01*
X399202Y118115D01*
X399201Y118115D01*
X398265Y116109D01*
X398265Y116107D01*
X398264Y116107D01*
X397691Y113968D01*
X397692Y113967D01*
X397691Y113966D01*
X397498Y111761D01*
X397499Y111760D01*
X397498Y111760D01*
X397498Y66040D01*
X397499Y66039D01*
X397498Y66039D01*
X397691Y63834D01*
X397692Y63833D01*
X397691Y63832D01*
X398264Y61693D01*
X398266Y61692D01*
X398265Y61691D01*
X399201Y59685D01*
X399202Y59684D01*
X399202Y59683D01*
X400471Y57870D01*
X400473Y57869D01*
X400473Y57868D01*
X402038Y56303D01*
X402040Y56303D01*
X402040Y56301D01*
X403853Y55032D01*
X403855Y55032D01*
X403855Y55031D01*
X405861Y54095D01*
X405863Y54095D01*
X405863Y54094D01*
X408002Y53521D01*
X408003Y53522D01*
X408004Y53521D01*
X410209Y53328D01*
X410210Y53329D01*
X410210Y53328D01*
X415290Y53328D01*
X415291Y53329D01*
G37*
G36*
X224791Y53329D02*
X224791Y53329D01*
X224791Y53328D01*
X226996Y53521D01*
X226997Y53522D01*
X226998Y53521D01*
X229137Y54094D01*
X229138Y54096D01*
X229139Y54095D01*
X231145Y55031D01*
X231146Y55032D01*
X231147Y55032D01*
X232960Y56301D01*
X232961Y56303D01*
X232962Y56303D01*
X234527Y57868D01*
X234527Y57870D01*
X234529Y57870D01*
X235798Y59683D01*
X235798Y59685D01*
X235799Y59685D01*
X236735Y61691D01*
X236735Y61693D01*
X236736Y61693D01*
X237309Y63832D01*
X237308Y63833D01*
X237309Y63834D01*
X237502Y66039D01*
X237501Y66040D01*
X237502Y66040D01*
X237502Y111760D01*
X237502Y111761D01*
X237309Y113966D01*
X237308Y113967D01*
X237309Y113968D01*
X236736Y116107D01*
X236734Y116108D01*
X236735Y116109D01*
X235799Y118115D01*
X235798Y118116D01*
X235798Y118117D01*
X234529Y119930D01*
X234527Y119931D01*
X234527Y119932D01*
X232962Y121497D01*
X232960Y121497D01*
X232960Y121499D01*
X231147Y122768D01*
X231145Y122768D01*
X231145Y122769D01*
X229139Y123705D01*
X229137Y123705D01*
X229137Y123706D01*
X226998Y124279D01*
X226997Y124278D01*
X226996Y124279D01*
X224791Y124472D01*
X224790Y124471D01*
X224790Y124472D01*
X219710Y124472D01*
X219709Y124471D01*
X219709Y124472D01*
X217504Y124279D01*
X217503Y124278D01*
X217502Y124279D01*
X215363Y123706D01*
X215362Y123704D01*
X215361Y123705D01*
X213355Y122769D01*
X213354Y122768D01*
X213353Y122768D01*
X211540Y121499D01*
X211539Y121497D01*
X211538Y121497D01*
X209973Y119932D01*
X209973Y119930D01*
X209971Y119930D01*
X208702Y118117D01*
X208702Y118115D01*
X208701Y118115D01*
X207765Y116109D01*
X207765Y116107D01*
X207764Y116107D01*
X207191Y113968D01*
X207192Y113967D01*
X207191Y113966D01*
X206998Y111761D01*
X206999Y111760D01*
X206998Y111760D01*
X206998Y66040D01*
X206999Y66039D01*
X206998Y66039D01*
X207191Y63834D01*
X207192Y63833D01*
X207191Y63832D01*
X207764Y61693D01*
X207766Y61692D01*
X207765Y61691D01*
X208701Y59685D01*
X208702Y59684D01*
X208702Y59683D01*
X209971Y57870D01*
X209973Y57869D01*
X209973Y57868D01*
X211538Y56303D01*
X211540Y56303D01*
X211540Y56301D01*
X213353Y55032D01*
X213355Y55032D01*
X213355Y55031D01*
X215361Y54095D01*
X215363Y54095D01*
X215363Y54094D01*
X217502Y53521D01*
X217503Y53522D01*
X217504Y53521D01*
X219709Y53328D01*
X219710Y53329D01*
X219710Y53328D01*
X224790Y53328D01*
X224791Y53329D01*
G37*
G36*
X351791Y53329D02*
X351791Y53329D01*
X351791Y53328D01*
X353996Y53521D01*
X353997Y53522D01*
X353998Y53521D01*
X356137Y54094D01*
X356138Y54096D01*
X356139Y54095D01*
X358145Y55031D01*
X358146Y55032D01*
X358147Y55032D01*
X359960Y56301D01*
X359961Y56303D01*
X359962Y56303D01*
X361527Y57868D01*
X361527Y57870D01*
X361529Y57870D01*
X362798Y59683D01*
X362798Y59685D01*
X362799Y59685D01*
X363735Y61691D01*
X363735Y61693D01*
X363736Y61693D01*
X364309Y63832D01*
X364308Y63833D01*
X364309Y63834D01*
X364502Y66039D01*
X364501Y66040D01*
X364502Y66040D01*
X364502Y111760D01*
X364502Y111761D01*
X364309Y113966D01*
X364308Y113967D01*
X364309Y113968D01*
X363736Y116107D01*
X363734Y116108D01*
X363735Y116109D01*
X362799Y118115D01*
X362798Y118116D01*
X362798Y118117D01*
X361529Y119930D01*
X361527Y119931D01*
X361527Y119932D01*
X359962Y121497D01*
X359960Y121497D01*
X359960Y121499D01*
X358147Y122768D01*
X358145Y122768D01*
X358145Y122769D01*
X356139Y123705D01*
X356137Y123705D01*
X356137Y123706D01*
X353998Y124279D01*
X353997Y124278D01*
X353996Y124279D01*
X351791Y124472D01*
X351790Y124471D01*
X351790Y124472D01*
X346710Y124472D01*
X346709Y124471D01*
X346709Y124472D01*
X344504Y124279D01*
X344503Y124278D01*
X344502Y124279D01*
X342363Y123706D01*
X342362Y123704D01*
X342361Y123705D01*
X340355Y122769D01*
X340354Y122768D01*
X340353Y122768D01*
X338540Y121499D01*
X338539Y121497D01*
X338538Y121497D01*
X336973Y119932D01*
X336973Y119930D01*
X336971Y119930D01*
X335702Y118117D01*
X335702Y118115D01*
X335701Y118115D01*
X334765Y116109D01*
X334765Y116107D01*
X334764Y116107D01*
X334191Y113968D01*
X334192Y113967D01*
X334191Y113966D01*
X333998Y111761D01*
X333999Y111760D01*
X333998Y111760D01*
X333998Y66040D01*
X333999Y66039D01*
X333998Y66039D01*
X334191Y63834D01*
X334192Y63833D01*
X334191Y63832D01*
X334764Y61693D01*
X334766Y61692D01*
X334765Y61691D01*
X335701Y59685D01*
X335702Y59684D01*
X335702Y59683D01*
X336971Y57870D01*
X336973Y57869D01*
X336973Y57868D01*
X338538Y56303D01*
X338540Y56303D01*
X338540Y56301D01*
X340353Y55032D01*
X340355Y55032D01*
X340355Y55031D01*
X342361Y54095D01*
X342363Y54095D01*
X342363Y54094D01*
X344502Y53521D01*
X344503Y53522D01*
X344504Y53521D01*
X346709Y53328D01*
X346710Y53329D01*
X346710Y53328D01*
X351790Y53328D01*
X351791Y53329D01*
G37*
G36*
X161291Y53329D02*
X161291Y53329D01*
X161291Y53328D01*
X163496Y53521D01*
X163497Y53522D01*
X163498Y53521D01*
X165637Y54094D01*
X165638Y54096D01*
X165639Y54095D01*
X167645Y55031D01*
X167646Y55032D01*
X167647Y55032D01*
X169460Y56301D01*
X169461Y56303D01*
X169462Y56303D01*
X171027Y57868D01*
X171027Y57870D01*
X171029Y57870D01*
X172298Y59683D01*
X172298Y59685D01*
X172299Y59685D01*
X173235Y61691D01*
X173235Y61693D01*
X173236Y61693D01*
X173809Y63832D01*
X173808Y63833D01*
X173809Y63834D01*
X174002Y66039D01*
X174001Y66040D01*
X174002Y66040D01*
X174002Y111760D01*
X174002Y111761D01*
X173809Y113966D01*
X173808Y113967D01*
X173809Y113968D01*
X173236Y116107D01*
X173234Y116108D01*
X173235Y116109D01*
X172299Y118115D01*
X172298Y118116D01*
X172298Y118117D01*
X171029Y119930D01*
X171027Y119931D01*
X171027Y119932D01*
X169462Y121497D01*
X169460Y121497D01*
X169460Y121499D01*
X167647Y122768D01*
X167645Y122768D01*
X167645Y122769D01*
X165639Y123705D01*
X165637Y123705D01*
X165637Y123706D01*
X163498Y124279D01*
X163497Y124278D01*
X163496Y124279D01*
X161291Y124472D01*
X161290Y124471D01*
X161290Y124472D01*
X156210Y124472D01*
X156209Y124471D01*
X156209Y124472D01*
X154004Y124279D01*
X154003Y124278D01*
X154002Y124279D01*
X151863Y123706D01*
X151862Y123704D01*
X151861Y123705D01*
X149855Y122769D01*
X149854Y122768D01*
X149853Y122768D01*
X148040Y121499D01*
X148039Y121497D01*
X148038Y121497D01*
X146473Y119932D01*
X146473Y119930D01*
X146471Y119930D01*
X145202Y118117D01*
X145202Y118115D01*
X145201Y118115D01*
X144265Y116109D01*
X144265Y116107D01*
X144264Y116107D01*
X143691Y113968D01*
X143692Y113967D01*
X143691Y113966D01*
X143498Y111761D01*
X143499Y111760D01*
X143498Y111760D01*
X143498Y66040D01*
X143499Y66039D01*
X143498Y66039D01*
X143691Y63834D01*
X143692Y63833D01*
X143691Y63832D01*
X144264Y61693D01*
X144266Y61692D01*
X144265Y61691D01*
X145201Y59685D01*
X145202Y59684D01*
X145202Y59683D01*
X146471Y57870D01*
X146473Y57869D01*
X146473Y57868D01*
X148038Y56303D01*
X148040Y56303D01*
X148040Y56301D01*
X149853Y55032D01*
X149855Y55032D01*
X149855Y55031D01*
X151861Y54095D01*
X151863Y54095D01*
X151863Y54094D01*
X154002Y53521D01*
X154003Y53522D01*
X154004Y53521D01*
X156209Y53328D01*
X156210Y53329D01*
X156210Y53328D01*
X161290Y53328D01*
X161291Y53329D01*
G37*
G36*
X288291Y53329D02*
X288291Y53329D01*
X288291Y53328D01*
X290496Y53521D01*
X290497Y53522D01*
X290498Y53521D01*
X292637Y54094D01*
X292638Y54096D01*
X292639Y54095D01*
X294645Y55031D01*
X294646Y55032D01*
X294647Y55032D01*
X296460Y56301D01*
X296461Y56303D01*
X296462Y56303D01*
X298027Y57868D01*
X298027Y57870D01*
X298029Y57870D01*
X299298Y59683D01*
X299298Y59685D01*
X299299Y59685D01*
X300235Y61691D01*
X300235Y61693D01*
X300236Y61693D01*
X300809Y63832D01*
X300808Y63833D01*
X300809Y63834D01*
X301002Y66039D01*
X301001Y66040D01*
X301002Y66040D01*
X301002Y111760D01*
X301002Y111761D01*
X300809Y113966D01*
X300808Y113967D01*
X300809Y113968D01*
X300236Y116107D01*
X300234Y116108D01*
X300235Y116109D01*
X299299Y118115D01*
X299298Y118116D01*
X299298Y118117D01*
X298029Y119930D01*
X298027Y119931D01*
X298027Y119932D01*
X296462Y121497D01*
X296460Y121497D01*
X296460Y121499D01*
X294647Y122768D01*
X294645Y122768D01*
X294645Y122769D01*
X292639Y123705D01*
X292637Y123705D01*
X292637Y123706D01*
X290498Y124279D01*
X290497Y124278D01*
X290496Y124279D01*
X288291Y124472D01*
X288290Y124471D01*
X288290Y124472D01*
X283210Y124472D01*
X283209Y124471D01*
X283209Y124472D01*
X281004Y124279D01*
X281003Y124278D01*
X281002Y124279D01*
X278863Y123706D01*
X278862Y123704D01*
X278861Y123705D01*
X276855Y122769D01*
X276854Y122768D01*
X276853Y122768D01*
X275040Y121499D01*
X275039Y121497D01*
X275038Y121497D01*
X273473Y119932D01*
X273473Y119930D01*
X273471Y119930D01*
X272202Y118117D01*
X272202Y118115D01*
X272201Y118115D01*
X271265Y116109D01*
X271265Y116107D01*
X271264Y116107D01*
X270691Y113968D01*
X270692Y113967D01*
X270691Y113966D01*
X270498Y111761D01*
X270499Y111760D01*
X270498Y111760D01*
X270498Y66040D01*
X270499Y66039D01*
X270498Y66039D01*
X270691Y63834D01*
X270692Y63833D01*
X270691Y63832D01*
X271264Y61693D01*
X271266Y61692D01*
X271265Y61691D01*
X272201Y59685D01*
X272202Y59684D01*
X272202Y59683D01*
X273471Y57870D01*
X273473Y57869D01*
X273473Y57868D01*
X275038Y56303D01*
X275040Y56303D01*
X275040Y56301D01*
X276853Y55032D01*
X276855Y55032D01*
X276855Y55031D01*
X278861Y54095D01*
X278863Y54095D01*
X278863Y54094D01*
X281002Y53521D01*
X281003Y53522D01*
X281004Y53521D01*
X283209Y53328D01*
X283210Y53329D01*
X283210Y53328D01*
X288290Y53328D01*
X288291Y53329D01*
G37*
G36*
X97791Y53329D02*
X97791Y53329D01*
X97791Y53328D01*
X99996Y53521D01*
X99997Y53522D01*
X99998Y53521D01*
X102137Y54094D01*
X102138Y54096D01*
X102139Y54095D01*
X104145Y55031D01*
X104146Y55032D01*
X104147Y55032D01*
X105960Y56301D01*
X105961Y56303D01*
X105962Y56303D01*
X107527Y57868D01*
X107527Y57870D01*
X107529Y57870D01*
X108798Y59683D01*
X108798Y59685D01*
X108799Y59685D01*
X109735Y61691D01*
X109735Y61693D01*
X109736Y61693D01*
X110309Y63832D01*
X110308Y63833D01*
X110309Y63834D01*
X110502Y66039D01*
X110501Y66040D01*
X110502Y66040D01*
X110502Y111760D01*
X110502Y111761D01*
X110309Y113966D01*
X110308Y113967D01*
X110309Y113968D01*
X109736Y116107D01*
X109734Y116108D01*
X109735Y116109D01*
X108799Y118115D01*
X108798Y118116D01*
X108798Y118117D01*
X107529Y119930D01*
X107527Y119931D01*
X107527Y119932D01*
X105962Y121497D01*
X105960Y121497D01*
X105960Y121499D01*
X104147Y122768D01*
X104145Y122768D01*
X104145Y122769D01*
X102139Y123705D01*
X102137Y123705D01*
X102137Y123706D01*
X99998Y124279D01*
X99997Y124278D01*
X99996Y124279D01*
X97791Y124472D01*
X97790Y124471D01*
X97790Y124472D01*
X92710Y124472D01*
X92709Y124471D01*
X92709Y124472D01*
X90504Y124279D01*
X90503Y124278D01*
X90502Y124279D01*
X88363Y123706D01*
X88362Y123704D01*
X88361Y123705D01*
X86355Y122769D01*
X86354Y122768D01*
X86353Y122768D01*
X84540Y121499D01*
X84539Y121497D01*
X84538Y121497D01*
X82973Y119932D01*
X82973Y119930D01*
X82971Y119930D01*
X81702Y118117D01*
X81702Y118115D01*
X81701Y118115D01*
X80765Y116109D01*
X80765Y116107D01*
X80764Y116107D01*
X80191Y113968D01*
X80192Y113967D01*
X80191Y113966D01*
X79998Y111761D01*
X79999Y111760D01*
X79998Y111760D01*
X79998Y66040D01*
X79999Y66039D01*
X79998Y66039D01*
X80191Y63834D01*
X80192Y63833D01*
X80191Y63832D01*
X80764Y61693D01*
X80766Y61692D01*
X80765Y61691D01*
X81701Y59685D01*
X81702Y59684D01*
X81702Y59683D01*
X82971Y57870D01*
X82973Y57869D01*
X82973Y57868D01*
X84538Y56303D01*
X84540Y56303D01*
X84540Y56301D01*
X86353Y55032D01*
X86355Y55032D01*
X86355Y55031D01*
X88361Y54095D01*
X88363Y54095D01*
X88363Y54094D01*
X90502Y53521D01*
X90503Y53522D01*
X90504Y53521D01*
X92709Y53328D01*
X92710Y53329D01*
X92710Y53328D01*
X97790Y53328D01*
X97791Y53329D01*
G37*
G36*
X538481Y262625D02*
X538481Y262625D01*
X538481Y262624D01*
X539329Y262720D01*
X539330Y262721D01*
X539332Y262720D01*
X540137Y263002D01*
X540138Y263004D01*
X540139Y263003D01*
X540862Y263457D01*
X540862Y263459D01*
X540864Y263459D01*
X541467Y264062D01*
X541467Y264064D01*
X541469Y264064D01*
X541923Y264787D01*
X541923Y264788D01*
X541924Y264789D01*
X542206Y265594D01*
X542206Y265595D01*
X542205Y265596D01*
X542206Y265597D01*
X542213Y265655D01*
X542244Y265929D01*
X542275Y266204D01*
X542302Y266445D01*
X542301Y266445D01*
X542302Y266446D01*
X542302Y266954D01*
X542301Y266955D01*
X542302Y266955D01*
X542206Y267803D01*
X542205Y267804D01*
X542206Y267806D01*
X541924Y268611D01*
X541922Y268612D01*
X541923Y268613D01*
X541469Y269336D01*
X541467Y269336D01*
X541467Y269338D01*
X540864Y269941D01*
X540862Y269941D01*
X540862Y269943D01*
X540139Y270397D01*
X540138Y270397D01*
X540137Y270398D01*
X539332Y270680D01*
X539330Y270679D01*
X539329Y270680D01*
X538481Y270776D01*
X538481Y270775D01*
X538480Y270776D01*
X515620Y270776D01*
X515619Y270775D01*
X515619Y270776D01*
X514771Y270680D01*
X514770Y270679D01*
X514768Y270680D01*
X513963Y270398D01*
X513962Y270396D01*
X513961Y270397D01*
X513238Y269943D01*
X513238Y269941D01*
X513236Y269941D01*
X512633Y269338D01*
X512633Y269336D01*
X512631Y269336D01*
X512177Y268613D01*
X512178Y268612D01*
X512176Y268611D01*
X511894Y267806D01*
X511895Y267804D01*
X511894Y267803D01*
X511889Y267759D01*
X511887Y267747D01*
X511858Y267484D01*
X511827Y267210D01*
X511798Y266955D01*
X511799Y266955D01*
X511798Y266954D01*
X511798Y266446D01*
X511799Y266445D01*
X511798Y266445D01*
X511894Y265597D01*
X511895Y265596D01*
X511894Y265594D01*
X512176Y264789D01*
X512178Y264788D01*
X512177Y264787D01*
X512631Y264064D01*
X512633Y264064D01*
X512633Y264062D01*
X513236Y263459D01*
X513238Y263459D01*
X513238Y263457D01*
X513961Y263003D01*
X513962Y263004D01*
X513963Y263002D01*
X514768Y262720D01*
X514770Y262721D01*
X514771Y262720D01*
X515619Y262624D01*
X515619Y262625D01*
X515620Y262624D01*
X538480Y262624D01*
X538481Y262625D01*
G37*
G36*
X436881Y262625D02*
X436881Y262625D01*
X436881Y262624D01*
X437729Y262720D01*
X437730Y262721D01*
X437732Y262720D01*
X438537Y263002D01*
X438538Y263004D01*
X438539Y263003D01*
X439262Y263457D01*
X439262Y263459D01*
X439264Y263459D01*
X439867Y264062D01*
X439867Y264064D01*
X439869Y264064D01*
X440323Y264787D01*
X440323Y264788D01*
X440324Y264789D01*
X440606Y265594D01*
X440606Y265595D01*
X440605Y265596D01*
X440606Y265597D01*
X440613Y265655D01*
X440644Y265929D01*
X440675Y266204D01*
X440702Y266445D01*
X440701Y266445D01*
X440702Y266446D01*
X440702Y266954D01*
X440701Y266955D01*
X440702Y266955D01*
X440606Y267803D01*
X440605Y267804D01*
X440606Y267806D01*
X440324Y268611D01*
X440322Y268612D01*
X440323Y268613D01*
X439869Y269336D01*
X439867Y269336D01*
X439867Y269338D01*
X439264Y269941D01*
X439262Y269941D01*
X439262Y269943D01*
X438539Y270397D01*
X438538Y270397D01*
X438537Y270398D01*
X437732Y270680D01*
X437730Y270679D01*
X437729Y270680D01*
X436881Y270776D01*
X436881Y270775D01*
X436880Y270776D01*
X414020Y270776D01*
X414019Y270775D01*
X414019Y270776D01*
X413171Y270680D01*
X413170Y270679D01*
X413168Y270680D01*
X412363Y270398D01*
X412362Y270396D01*
X412361Y270397D01*
X411638Y269943D01*
X411638Y269941D01*
X411636Y269941D01*
X411033Y269338D01*
X411033Y269336D01*
X411031Y269336D01*
X410577Y268613D01*
X410578Y268612D01*
X410576Y268611D01*
X410294Y267806D01*
X410295Y267804D01*
X410294Y267803D01*
X410289Y267759D01*
X410287Y267747D01*
X410258Y267484D01*
X410227Y267210D01*
X410198Y266955D01*
X410199Y266955D01*
X410198Y266954D01*
X410198Y266446D01*
X410199Y266445D01*
X410198Y266445D01*
X410294Y265597D01*
X410295Y265596D01*
X410294Y265594D01*
X410576Y264789D01*
X410578Y264788D01*
X410577Y264787D01*
X411031Y264064D01*
X411033Y264064D01*
X411033Y264062D01*
X411636Y263459D01*
X411638Y263459D01*
X411638Y263457D01*
X412361Y263003D01*
X412362Y263004D01*
X412363Y263002D01*
X413168Y262720D01*
X413170Y262721D01*
X413171Y262720D01*
X414019Y262624D01*
X414019Y262625D01*
X414020Y262624D01*
X436880Y262624D01*
X436881Y262625D01*
G37*
G36*
X398781Y239765D02*
X398781Y239765D01*
X398781Y239764D01*
X399629Y239860D01*
X399630Y239861D01*
X399632Y239860D01*
X400437Y240142D01*
X400438Y240144D01*
X400439Y240143D01*
X401162Y240597D01*
X401162Y240599D01*
X401164Y240599D01*
X401767Y241202D01*
X401767Y241204D01*
X401769Y241204D01*
X402223Y241927D01*
X402223Y241928D01*
X402224Y241929D01*
X402506Y242734D01*
X402506Y242735D01*
X402505Y242736D01*
X402506Y242737D01*
X402513Y242795D01*
X402544Y243069D01*
X402575Y243344D01*
X402602Y243585D01*
X402601Y243585D01*
X402602Y243586D01*
X402602Y244094D01*
X402601Y244095D01*
X402602Y244095D01*
X402506Y244943D01*
X402505Y244944D01*
X402506Y244946D01*
X402224Y245751D01*
X402222Y245752D01*
X402223Y245753D01*
X401769Y246476D01*
X401767Y246476D01*
X401767Y246478D01*
X401164Y247081D01*
X401162Y247081D01*
X401162Y247083D01*
X400439Y247537D01*
X400438Y247537D01*
X400437Y247538D01*
X399632Y247820D01*
X399630Y247819D01*
X399629Y247820D01*
X398781Y247916D01*
X398781Y247915D01*
X398780Y247916D01*
X375920Y247916D01*
X375919Y247915D01*
X375919Y247916D01*
X375071Y247820D01*
X375070Y247819D01*
X375068Y247820D01*
X374263Y247538D01*
X374262Y247536D01*
X374261Y247537D01*
X373538Y247083D01*
X373538Y247081D01*
X373536Y247081D01*
X372933Y246478D01*
X372933Y246476D01*
X372931Y246476D01*
X372477Y245753D01*
X372478Y245752D01*
X372476Y245751D01*
X372194Y244946D01*
X372195Y244944D01*
X372194Y244943D01*
X372189Y244899D01*
X372187Y244887D01*
X372158Y244624D01*
X372127Y244350D01*
X372098Y244095D01*
X372099Y244095D01*
X372098Y244094D01*
X372098Y243586D01*
X372099Y243585D01*
X372098Y243585D01*
X372194Y242737D01*
X372195Y242736D01*
X372194Y242734D01*
X372476Y241929D01*
X372478Y241928D01*
X372477Y241927D01*
X372931Y241204D01*
X372933Y241204D01*
X372933Y241202D01*
X373536Y240599D01*
X373538Y240599D01*
X373538Y240597D01*
X374261Y240143D01*
X374262Y240144D01*
X374263Y240142D01*
X375068Y239860D01*
X375070Y239861D01*
X375071Y239860D01*
X375919Y239764D01*
X375919Y239765D01*
X375920Y239764D01*
X398780Y239764D01*
X398781Y239765D01*
G37*
G36*
X500381Y239765D02*
X500381Y239765D01*
X500381Y239764D01*
X501229Y239860D01*
X501230Y239861D01*
X501232Y239860D01*
X502037Y240142D01*
X502038Y240144D01*
X502039Y240143D01*
X502762Y240597D01*
X502762Y240599D01*
X502764Y240599D01*
X503367Y241202D01*
X503367Y241204D01*
X503369Y241204D01*
X503823Y241927D01*
X503823Y241928D01*
X503824Y241929D01*
X504106Y242734D01*
X504106Y242735D01*
X504105Y242736D01*
X504106Y242737D01*
X504113Y242795D01*
X504144Y243069D01*
X504175Y243344D01*
X504202Y243585D01*
X504201Y243585D01*
X504202Y243586D01*
X504202Y244094D01*
X504201Y244095D01*
X504202Y244095D01*
X504106Y244943D01*
X504105Y244944D01*
X504106Y244946D01*
X503824Y245751D01*
X503822Y245752D01*
X503823Y245753D01*
X503369Y246476D01*
X503367Y246476D01*
X503367Y246478D01*
X502764Y247081D01*
X502762Y247081D01*
X502762Y247083D01*
X502039Y247537D01*
X502038Y247537D01*
X502037Y247538D01*
X501232Y247820D01*
X501230Y247819D01*
X501229Y247820D01*
X500381Y247916D01*
X500381Y247915D01*
X500380Y247916D01*
X477520Y247916D01*
X477519Y247915D01*
X477519Y247916D01*
X476671Y247820D01*
X476670Y247819D01*
X476668Y247820D01*
X475863Y247538D01*
X475862Y247536D01*
X475861Y247537D01*
X475138Y247083D01*
X475138Y247081D01*
X475136Y247081D01*
X474533Y246478D01*
X474533Y246476D01*
X474531Y246476D01*
X474077Y245753D01*
X474078Y245752D01*
X474076Y245751D01*
X473794Y244946D01*
X473795Y244944D01*
X473794Y244943D01*
X473789Y244899D01*
X473787Y244887D01*
X473758Y244624D01*
X473727Y244350D01*
X473698Y244095D01*
X473699Y244095D01*
X473698Y244094D01*
X473698Y243586D01*
X473699Y243585D01*
X473698Y243585D01*
X473794Y242737D01*
X473795Y242736D01*
X473794Y242734D01*
X474076Y241929D01*
X474078Y241928D01*
X474077Y241927D01*
X474531Y241204D01*
X474533Y241204D01*
X474533Y241202D01*
X475136Y240599D01*
X475138Y240599D01*
X475138Y240597D01*
X475861Y240143D01*
X475862Y240144D01*
X475863Y240142D01*
X476668Y239860D01*
X476670Y239861D01*
X476671Y239860D01*
X477519Y239764D01*
X477519Y239765D01*
X477520Y239764D01*
X500380Y239764D01*
X500381Y239765D01*
G37*
G36*
X543815Y200649D02*
X543815Y200649D01*
X543815Y200648D01*
X544663Y200744D01*
X544664Y200745D01*
X544666Y200744D01*
X545471Y201026D01*
X545472Y201028D01*
X545473Y201027D01*
X546196Y201481D01*
X546196Y201483D01*
X546198Y201483D01*
X546801Y202086D01*
X546801Y202088D01*
X546803Y202088D01*
X547257Y202811D01*
X547257Y202812D01*
X547258Y202813D01*
X547540Y203618D01*
X547540Y203619D01*
X547539Y203620D01*
X547540Y203621D01*
X547547Y203679D01*
X547578Y203953D01*
X547609Y204228D01*
X547636Y204469D01*
X547635Y204469D01*
X547636Y204470D01*
X547636Y227330D01*
X547635Y227331D01*
X547636Y227331D01*
X547540Y228179D01*
X547539Y228180D01*
X547540Y228182D01*
X547258Y228987D01*
X547256Y228988D01*
X547257Y228989D01*
X546803Y229712D01*
X546801Y229712D01*
X546801Y229714D01*
X546198Y230317D01*
X546196Y230317D01*
X546196Y230319D01*
X545473Y230773D01*
X545472Y230773D01*
X545471Y230774D01*
X544666Y231056D01*
X544664Y231055D01*
X544663Y231056D01*
X543815Y231152D01*
X543815Y231151D01*
X543814Y231152D01*
X543306Y231152D01*
X543305Y231151D01*
X543305Y231152D01*
X542457Y231056D01*
X542456Y231055D01*
X542454Y231056D01*
X541649Y230774D01*
X541648Y230772D01*
X541647Y230773D01*
X540924Y230319D01*
X540924Y230317D01*
X540922Y230317D01*
X540319Y229714D01*
X540319Y229712D01*
X540317Y229712D01*
X539863Y228989D01*
X539864Y228988D01*
X539862Y228987D01*
X539580Y228182D01*
X539581Y228180D01*
X539580Y228179D01*
X539575Y228142D01*
X539574Y228130D01*
X539545Y227867D01*
X539544Y227867D01*
X539543Y227855D01*
X539514Y227593D01*
X539514Y227592D01*
X539512Y227581D01*
X539484Y227331D01*
X539485Y227331D01*
X539484Y227330D01*
X539484Y204470D01*
X539485Y204469D01*
X539484Y204469D01*
X539580Y203621D01*
X539581Y203620D01*
X539580Y203618D01*
X539862Y202813D01*
X539864Y202812D01*
X539863Y202811D01*
X540317Y202088D01*
X540319Y202088D01*
X540319Y202086D01*
X540922Y201483D01*
X540924Y201483D01*
X540924Y201481D01*
X541647Y201027D01*
X541648Y201028D01*
X541649Y201026D01*
X542454Y200744D01*
X542456Y200745D01*
X542457Y200744D01*
X543305Y200648D01*
X543305Y200649D01*
X543306Y200648D01*
X543814Y200648D01*
X543815Y200649D01*
G37*
G36*
X442215Y200649D02*
X442215Y200649D01*
X442215Y200648D01*
X443063Y200744D01*
X443064Y200745D01*
X443066Y200744D01*
X443871Y201026D01*
X443872Y201028D01*
X443873Y201027D01*
X444596Y201481D01*
X444596Y201483D01*
X444598Y201483D01*
X445201Y202086D01*
X445201Y202088D01*
X445203Y202088D01*
X445657Y202811D01*
X445657Y202812D01*
X445658Y202813D01*
X445940Y203618D01*
X445940Y203619D01*
X445939Y203620D01*
X445940Y203621D01*
X445947Y203679D01*
X445978Y203953D01*
X446009Y204228D01*
X446036Y204469D01*
X446035Y204469D01*
X446036Y204470D01*
X446036Y227330D01*
X446035Y227331D01*
X446036Y227331D01*
X445940Y228179D01*
X445939Y228180D01*
X445940Y228182D01*
X445658Y228987D01*
X445656Y228988D01*
X445657Y228989D01*
X445203Y229712D01*
X445201Y229712D01*
X445201Y229714D01*
X444598Y230317D01*
X444596Y230317D01*
X444596Y230319D01*
X443873Y230773D01*
X443872Y230773D01*
X443871Y230774D01*
X443066Y231056D01*
X443064Y231055D01*
X443063Y231056D01*
X442215Y231152D01*
X442215Y231151D01*
X442214Y231152D01*
X441706Y231152D01*
X441705Y231151D01*
X441705Y231152D01*
X440857Y231056D01*
X440856Y231055D01*
X440854Y231056D01*
X440049Y230774D01*
X440048Y230772D01*
X440047Y230773D01*
X439324Y230319D01*
X439324Y230317D01*
X439322Y230317D01*
X438719Y229714D01*
X438719Y229712D01*
X438717Y229712D01*
X438263Y228989D01*
X438264Y228988D01*
X438262Y228987D01*
X437980Y228182D01*
X437981Y228180D01*
X437980Y228179D01*
X437975Y228142D01*
X437974Y228130D01*
X437945Y227867D01*
X437944Y227867D01*
X437943Y227855D01*
X437914Y227593D01*
X437914Y227592D01*
X437912Y227581D01*
X437884Y227331D01*
X437885Y227331D01*
X437884Y227330D01*
X437884Y204470D01*
X437885Y204469D01*
X437884Y204469D01*
X437980Y203621D01*
X437981Y203620D01*
X437980Y203618D01*
X438262Y202813D01*
X438264Y202812D01*
X438263Y202811D01*
X438717Y202088D01*
X438719Y202088D01*
X438719Y202086D01*
X439322Y201483D01*
X439324Y201483D01*
X439324Y201481D01*
X440047Y201027D01*
X440048Y201028D01*
X440049Y201026D01*
X440854Y200744D01*
X440856Y200745D01*
X440857Y200744D01*
X441705Y200648D01*
X441705Y200649D01*
X441706Y200648D01*
X442214Y200648D01*
X442215Y200649D01*
G37*
G36*
X599607Y131777D02*
X599607Y131777D01*
X599614Y131775D01*
X600493Y131874D01*
X600505Y131880D01*
X600521Y131880D01*
X601356Y132172D01*
X601366Y132181D01*
X601381Y132184D01*
X602130Y132655D01*
X602138Y132666D01*
X602152Y132673D01*
X602778Y133298D01*
X602783Y133311D01*
X602795Y133320D01*
X603266Y134069D01*
X603268Y134083D01*
X603278Y134094D01*
X603570Y134929D01*
X603569Y134943D01*
X603576Y134957D01*
X603675Y135836D01*
X603673Y135843D01*
X603676Y135850D01*
X603676Y135950D01*
X603673Y135957D01*
X603675Y135964D01*
X603576Y136843D01*
X603570Y136855D01*
X603570Y136871D01*
X603278Y137706D01*
X603269Y137716D01*
X603266Y137731D01*
X602795Y138480D01*
X602784Y138488D01*
X602778Y138502D01*
X602152Y139128D01*
X602139Y139133D01*
X602130Y139145D01*
X601381Y139616D01*
X601367Y139618D01*
X601356Y139628D01*
X600521Y139920D01*
X600507Y139919D01*
X600493Y139926D01*
X599614Y140025D01*
X599607Y140023D01*
X599600Y140026D01*
X581500Y140026D01*
X581493Y140023D01*
X581486Y140025D01*
X580607Y139926D01*
X580595Y139920D01*
X580579Y139920D01*
X579744Y139628D01*
X579734Y139619D01*
X579719Y139616D01*
X578970Y139145D01*
X578962Y139134D01*
X578948Y139128D01*
X578323Y138502D01*
X578317Y138489D01*
X578305Y138480D01*
X577834Y137731D01*
X577832Y137717D01*
X577822Y137706D01*
X577530Y136871D01*
X577531Y136857D01*
X577524Y136843D01*
X577425Y135964D01*
X577427Y135957D01*
X577424Y135950D01*
X577424Y135850D01*
X577427Y135843D01*
X577425Y135836D01*
X577524Y134957D01*
X577530Y134945D01*
X577530Y134929D01*
X577822Y134094D01*
X577831Y134084D01*
X577834Y134069D01*
X578305Y133320D01*
X578316Y133312D01*
X578323Y133298D01*
X578948Y132673D01*
X578961Y132667D01*
X578970Y132655D01*
X579719Y132184D01*
X579733Y132182D01*
X579744Y132172D01*
X580579Y131880D01*
X580593Y131881D01*
X580607Y131874D01*
X581486Y131775D01*
X581493Y131777D01*
X581500Y131774D01*
X599600Y131774D01*
X599607Y131777D01*
G37*
G36*
X599607Y84777D02*
X599607Y84777D01*
X599614Y84775D01*
X600493Y84874D01*
X600505Y84880D01*
X600521Y84880D01*
X601356Y85172D01*
X601366Y85181D01*
X601381Y85184D01*
X602130Y85655D01*
X602138Y85666D01*
X602152Y85673D01*
X602778Y86298D01*
X602783Y86311D01*
X602795Y86320D01*
X603266Y87069D01*
X603268Y87083D01*
X603278Y87094D01*
X603570Y87929D01*
X603569Y87943D01*
X603576Y87957D01*
X603675Y88836D01*
X603673Y88843D01*
X603676Y88850D01*
X603676Y88950D01*
X603673Y88957D01*
X603675Y88964D01*
X603576Y89843D01*
X603570Y89855D01*
X603570Y89871D01*
X603278Y90706D01*
X603269Y90716D01*
X603266Y90731D01*
X602795Y91480D01*
X602784Y91488D01*
X602778Y91502D01*
X602152Y92128D01*
X602139Y92133D01*
X602130Y92145D01*
X601381Y92616D01*
X601367Y92618D01*
X601356Y92628D01*
X600521Y92920D01*
X600507Y92919D01*
X600493Y92926D01*
X599614Y93025D01*
X599607Y93023D01*
X599600Y93026D01*
X581500Y93026D01*
X581493Y93023D01*
X581486Y93025D01*
X580607Y92926D01*
X580595Y92920D01*
X580579Y92920D01*
X579744Y92628D01*
X579734Y92619D01*
X579719Y92616D01*
X578970Y92145D01*
X578962Y92134D01*
X578948Y92128D01*
X578323Y91502D01*
X578317Y91489D01*
X578305Y91480D01*
X577834Y90731D01*
X577832Y90717D01*
X577822Y90706D01*
X577530Y89871D01*
X577531Y89857D01*
X577524Y89843D01*
X577425Y88964D01*
X577427Y88957D01*
X577424Y88950D01*
X577424Y88850D01*
X577427Y88843D01*
X577425Y88836D01*
X577524Y87957D01*
X577530Y87945D01*
X577530Y87929D01*
X577822Y87094D01*
X577831Y87084D01*
X577834Y87069D01*
X578305Y86320D01*
X578316Y86312D01*
X578323Y86298D01*
X578948Y85673D01*
X578961Y85667D01*
X578970Y85655D01*
X579719Y85184D01*
X579733Y85182D01*
X579744Y85172D01*
X580579Y84880D01*
X580593Y84881D01*
X580607Y84874D01*
X581486Y84775D01*
X581493Y84777D01*
X581500Y84774D01*
X599600Y84774D01*
X599607Y84777D01*
G37*
G36*
X599607Y37777D02*
X599607Y37777D01*
X599614Y37775D01*
X600493Y37874D01*
X600505Y37880D01*
X600521Y37880D01*
X601356Y38172D01*
X601366Y38181D01*
X601381Y38184D01*
X602130Y38655D01*
X602138Y38666D01*
X602152Y38673D01*
X602778Y39298D01*
X602783Y39311D01*
X602795Y39320D01*
X603266Y40069D01*
X603268Y40083D01*
X603278Y40094D01*
X603570Y40929D01*
X603569Y40943D01*
X603576Y40957D01*
X603675Y41836D01*
X603673Y41843D01*
X603676Y41850D01*
X603676Y41950D01*
X603673Y41957D01*
X603675Y41964D01*
X603576Y42843D01*
X603570Y42855D01*
X603570Y42871D01*
X603278Y43706D01*
X603269Y43716D01*
X603266Y43731D01*
X602795Y44480D01*
X602784Y44488D01*
X602778Y44502D01*
X602152Y45128D01*
X602139Y45133D01*
X602130Y45145D01*
X601381Y45616D01*
X601367Y45618D01*
X601356Y45628D01*
X600521Y45920D01*
X600507Y45919D01*
X600493Y45926D01*
X599614Y46025D01*
X599607Y46023D01*
X599600Y46026D01*
X581500Y46026D01*
X581493Y46023D01*
X581486Y46025D01*
X580607Y45926D01*
X580595Y45920D01*
X580579Y45920D01*
X579744Y45628D01*
X579734Y45619D01*
X579719Y45616D01*
X578970Y45145D01*
X578962Y45134D01*
X578948Y45128D01*
X578323Y44502D01*
X578317Y44489D01*
X578305Y44480D01*
X577834Y43731D01*
X577832Y43717D01*
X577822Y43706D01*
X577530Y42871D01*
X577531Y42857D01*
X577524Y42843D01*
X577425Y41964D01*
X577427Y41957D01*
X577424Y41950D01*
X577424Y41850D01*
X577427Y41843D01*
X577425Y41836D01*
X577524Y40957D01*
X577530Y40945D01*
X577530Y40929D01*
X577822Y40094D01*
X577831Y40084D01*
X577834Y40069D01*
X578305Y39320D01*
X578316Y39312D01*
X578323Y39298D01*
X578948Y38673D01*
X578961Y38667D01*
X578970Y38655D01*
X579719Y38184D01*
X579733Y38182D01*
X579744Y38172D01*
X580579Y37880D01*
X580593Y37881D01*
X580607Y37874D01*
X581486Y37775D01*
X581493Y37777D01*
X581500Y37774D01*
X599600Y37774D01*
X599607Y37777D01*
G37*
D10*
X635000Y50800D02*
X635000Y279400D01*
X634985Y280628D01*
X634941Y281854D01*
X634867Y283080D01*
X634763Y284303D01*
X634630Y285523D01*
X634467Y286740D01*
X634275Y287953D01*
X634054Y289160D01*
X633803Y290362D01*
X633524Y291557D01*
X633216Y292746D01*
X632879Y293926D01*
X632514Y295098D01*
X632120Y296261D01*
X631699Y297414D01*
X631250Y298556D01*
X630773Y299688D01*
X630269Y300807D01*
X629738Y301914D01*
X629181Y303008D01*
X628598Y304088D01*
X627988Y305154D01*
X627353Y306204D01*
X626693Y307239D01*
X626008Y308258D01*
X625298Y309259D01*
X624565Y310244D01*
X623807Y311210D01*
X623027Y312158D01*
X622224Y313087D01*
X621399Y313996D01*
X620552Y314884D01*
X619684Y315752D01*
X618796Y316599D01*
X617887Y317424D01*
X616958Y318227D01*
X616010Y319007D01*
X615044Y319765D01*
X614059Y320498D01*
X613058Y321208D01*
X612039Y321893D01*
X611004Y322553D01*
X609954Y323188D01*
X608888Y323798D01*
X607808Y324381D01*
X606714Y324938D01*
X605607Y325469D01*
X604488Y325973D01*
X603356Y326450D01*
X602214Y326899D01*
X601061Y327320D01*
X599898Y327714D01*
X598726Y328079D01*
X597546Y328416D01*
X596357Y328724D01*
X595162Y329003D01*
X593960Y329254D01*
X592753Y329475D01*
X591540Y329667D01*
X590323Y329830D01*
X589103Y329963D01*
X587880Y330067D01*
X586654Y330141D01*
X585428Y330185D01*
X584200Y330200D01*
X50800Y330200D01*
X49572Y330185D01*
X48346Y330141D01*
X47120Y330067D01*
X45897Y329963D01*
X44677Y329830D01*
X43460Y329667D01*
X42247Y329475D01*
X41040Y329254D01*
X39838Y329003D01*
X38643Y328724D01*
X37454Y328416D01*
X36274Y328079D01*
X35102Y327714D01*
X33939Y327320D01*
X32786Y326899D01*
X31644Y326450D01*
X30512Y325973D01*
X29393Y325469D01*
X28286Y324938D01*
X27192Y324381D01*
X26112Y323798D01*
X25046Y323188D01*
X23996Y322553D01*
X22961Y321893D01*
X21942Y321208D01*
X20941Y320498D01*
X19956Y319765D01*
X18990Y319007D01*
X18042Y318227D01*
X17113Y317424D01*
X16204Y316599D01*
X15316Y315752D01*
X14448Y314884D01*
X13601Y313996D01*
X12776Y313087D01*
X11973Y312158D01*
X11193Y311210D01*
X10435Y310244D01*
X9702Y309259D01*
X8992Y308258D01*
X8307Y307239D01*
X7647Y306204D01*
X7012Y305154D01*
X6402Y304088D01*
X5819Y303008D01*
X5262Y301914D01*
X4731Y300807D01*
X4227Y299688D01*
X3750Y298556D01*
X3301Y297414D01*
X2880Y296261D01*
X2486Y295098D01*
X2121Y293926D01*
X1784Y292746D01*
X1476Y291557D01*
X1197Y290362D01*
X946Y289160D01*
X725Y287953D01*
X533Y286740D01*
X370Y285523D01*
X237Y284303D01*
X133Y283080D01*
X59Y281854D01*
X15Y280628D01*
X0Y279400D01*
X0Y50800D01*
X15Y49572D01*
X59Y48346D01*
X133Y47120D01*
X237Y45897D01*
X370Y44677D01*
X533Y43460D01*
X725Y42247D01*
X946Y41040D01*
X1197Y39838D01*
X1476Y38643D01*
X1784Y37454D01*
X2121Y36274D01*
X2486Y35102D01*
X2880Y33939D01*
X3301Y32786D01*
X3750Y31644D01*
X4227Y30512D01*
X4731Y29393D01*
X5262Y28286D01*
X5819Y27192D01*
X6402Y26112D01*
X7012Y25046D01*
X7647Y23996D01*
X8307Y22961D01*
X8992Y21942D01*
X9702Y20941D01*
X10435Y19956D01*
X11193Y18990D01*
X11973Y18042D01*
X12776Y17113D01*
X13601Y16204D01*
X14448Y15316D01*
X15316Y14448D01*
X16204Y13601D01*
X17113Y12776D01*
X18042Y11973D01*
X18990Y11193D01*
X19956Y10435D01*
X20941Y9702D01*
X21942Y8992D01*
X22961Y8307D01*
X23996Y7647D01*
X25046Y7012D01*
X26112Y6402D01*
X27192Y5819D01*
X28286Y5262D01*
X29393Y4731D01*
X30512Y4227D01*
X31644Y3750D01*
X32786Y3301D01*
X33939Y2880D01*
X35102Y2486D01*
X36274Y2121D01*
X37454Y1784D01*
X38643Y1476D01*
X39838Y1197D01*
X41040Y946D01*
X42247Y725D01*
X43460Y533D01*
X44677Y370D01*
X45897Y237D01*
X47120Y133D01*
X48346Y59D01*
X49572Y15D01*
X50800Y0D01*
X584200Y0D01*
X585428Y15D01*
X586654Y59D01*
X587880Y133D01*
X589103Y237D01*
X590323Y370D01*
X591540Y533D01*
X592753Y725D01*
X593960Y946D01*
X595162Y1197D01*
X596357Y1476D01*
X597546Y1784D01*
X598726Y2121D01*
X599898Y2486D01*
X601061Y2880D01*
X602214Y3301D01*
X603356Y3750D01*
X604488Y4227D01*
X605607Y4731D01*
X606714Y5262D01*
X607808Y5819D01*
X608888Y6402D01*
X609954Y7012D01*
X611004Y7647D01*
X612039Y8307D01*
X613058Y8992D01*
X614059Y9702D01*
X615044Y10435D01*
X616010Y11193D01*
X616958Y11973D01*
X617887Y12776D01*
X618796Y13601D01*
X619684Y14448D01*
X620552Y15316D01*
X621399Y16204D01*
X622224Y17113D01*
X623027Y18042D01*
X623807Y18990D01*
X624565Y19956D01*
X625298Y20941D01*
X626008Y21942D01*
X626693Y22961D01*
X627353Y23996D01*
X627988Y25046D01*
X628598Y26112D01*
X629181Y27192D01*
X629738Y28286D01*
X630269Y29393D01*
X630773Y30512D01*
X631250Y31644D01*
X631699Y32786D01*
X632120Y33939D01*
X632514Y35102D01*
X632879Y36274D01*
X633216Y37454D01*
X633524Y38643D01*
X633803Y39838D01*
X634054Y41040D01*
X634275Y42247D01*
X634467Y43460D01*
X634630Y44677D01*
X634763Y45897D01*
X634867Y47120D01*
X634941Y48346D01*
X634985Y49572D01*
X635000Y50800D01*
D11*
X351023Y287532D02*
X350133Y288422D01*
X348353Y288422D01*
X347464Y287532D01*
X347464Y286642D01*
X348353Y285752D01*
X350133Y285752D01*
X351023Y284863D01*
X351023Y283973D01*
X350133Y283083D01*
X348353Y283083D01*
X347464Y283973D01*
X353311Y288422D02*
X354200Y288422D01*
X354200Y283083D01*
X353311Y283083D02*
X355090Y283083D01*
X358098Y283083D02*
X359878Y283083D01*
X360768Y283973D01*
X360768Y285752D01*
X359878Y286642D01*
X358098Y286642D01*
X357208Y285752D01*
X357208Y283973D01*
X358098Y283083D01*
X363945Y283973D02*
X363945Y287532D01*
X363945Y283973D02*
X364835Y283083D01*
X364835Y286642D02*
X363055Y286642D01*
X372800Y288422D02*
X372800Y283083D01*
X375470Y283083D01*
X376359Y283973D01*
X376359Y287532D01*
X375470Y288422D01*
X372800Y288422D01*
X378647Y286642D02*
X378647Y283083D01*
X378647Y284863D02*
X380427Y286642D01*
X381317Y286642D01*
X383520Y286642D02*
X384410Y286642D01*
X384410Y283083D01*
X385299Y283083D02*
X383520Y283083D01*
X384410Y288422D02*
X384410Y289311D01*
X387418Y288422D02*
X388308Y288422D01*
X388308Y283083D01*
X389197Y283083D02*
X387418Y283083D01*
X391316Y288422D02*
X392206Y288422D01*
X392206Y283083D01*
X393095Y283083D02*
X391316Y283083D01*
X395214Y283083D02*
X397883Y283083D01*
X398773Y283973D01*
X397883Y284863D01*
X396103Y284863D01*
X395214Y285752D01*
X396103Y286642D01*
X398773Y286642D01*
X406908Y286642D02*
X406908Y283973D01*
X407797Y283083D01*
X408687Y283973D01*
X409577Y283083D01*
X410467Y283973D01*
X410467Y286642D01*
X412755Y286642D02*
X413644Y286642D01*
X413644Y283083D01*
X412755Y283083D02*
X414534Y283083D01*
X413644Y288422D02*
X413644Y289311D01*
X417542Y287532D02*
X417542Y283973D01*
X418432Y283083D01*
X418432Y286642D02*
X416653Y286642D01*
X420551Y288422D02*
X420551Y283083D01*
X420551Y285752D02*
X421440Y286642D01*
X423220Y286642D01*
X424110Y285752D01*
X424110Y283083D01*
X433134Y286642D02*
X435804Y286642D01*
X433134Y286642D02*
X432245Y285752D01*
X432245Y283973D01*
X433134Y283083D01*
X435804Y283083D01*
X438981Y283083D02*
X440761Y283083D01*
X441651Y283973D01*
X441651Y285752D01*
X440761Y286642D01*
X438981Y286642D01*
X438091Y285752D01*
X438091Y283973D01*
X438981Y283083D01*
X443938Y281304D02*
X443938Y286642D01*
X446608Y286642D01*
X447497Y285752D01*
X447497Y283973D01*
X446608Y283083D01*
X443938Y283083D01*
X449785Y281304D02*
X449785Y286642D01*
X452455Y286642D01*
X453344Y285752D01*
X453344Y283973D01*
X452455Y283083D01*
X449785Y283083D01*
X456522Y283083D02*
X458302Y283083D01*
X456522Y283083D02*
X455632Y283973D01*
X455632Y285752D01*
X456522Y286642D01*
X458302Y286642D01*
X459191Y285752D01*
X459191Y284863D01*
X455632Y284863D01*
X461479Y283083D02*
X461479Y286642D01*
X461479Y284863D02*
X463259Y286642D01*
X464149Y286642D01*
X452623Y287532D02*
X451733Y288422D01*
X449953Y288422D01*
X449064Y287532D01*
X449064Y286642D01*
X449953Y285752D01*
X451733Y285752D01*
X452623Y284863D01*
X452623Y283973D01*
X451733Y283083D01*
X449953Y283083D01*
X449064Y283973D01*
X454911Y288422D02*
X455800Y288422D01*
X455800Y283083D01*
X454911Y283083D02*
X456690Y283083D01*
X459698Y283083D02*
X461478Y283083D01*
X462368Y283973D01*
X462368Y285752D01*
X461478Y286642D01*
X459698Y286642D01*
X458808Y285752D01*
X458808Y283973D01*
X459698Y283083D01*
X465545Y283973D02*
X465545Y287532D01*
X465545Y283973D02*
X466435Y283083D01*
X466435Y286642D02*
X464655Y286642D01*
X474400Y288422D02*
X474400Y283083D01*
X477070Y283083D01*
X477959Y283973D01*
X477959Y287532D01*
X477070Y288422D01*
X474400Y288422D01*
X480247Y286642D02*
X480247Y283083D01*
X480247Y284863D02*
X482027Y286642D01*
X482917Y286642D01*
X485120Y286642D02*
X486010Y286642D01*
X486010Y283083D01*
X486899Y283083D02*
X485120Y283083D01*
X486010Y288422D02*
X486010Y289311D01*
X489018Y288422D02*
X489908Y288422D01*
X489908Y283083D01*
X490797Y283083D02*
X489018Y283083D01*
X492916Y288422D02*
X493806Y288422D01*
X493806Y283083D01*
X494695Y283083D02*
X492916Y283083D01*
X496814Y283083D02*
X499483Y283083D01*
X500373Y283973D01*
X499483Y284863D01*
X497703Y284863D01*
X496814Y285752D01*
X497703Y286642D01*
X500373Y286642D01*
X508508Y286642D02*
X508508Y283973D01*
X509397Y283083D01*
X510287Y283973D01*
X511177Y283083D01*
X512067Y283973D01*
X512067Y286642D01*
X514355Y286642D02*
X515244Y286642D01*
X515244Y283083D01*
X514355Y283083D02*
X516134Y283083D01*
X515244Y288422D02*
X515244Y289311D01*
X519142Y287532D02*
X519142Y283973D01*
X520032Y283083D01*
X520032Y286642D02*
X518253Y286642D01*
X522151Y288422D02*
X522151Y283083D01*
X522151Y285752D02*
X523040Y286642D01*
X524820Y286642D01*
X525710Y285752D01*
X525710Y283083D01*
X534734Y286642D02*
X537404Y286642D01*
X534734Y286642D02*
X533845Y285752D01*
X533845Y283973D01*
X534734Y283083D01*
X537404Y283083D01*
X540581Y283083D02*
X542361Y283083D01*
X543251Y283973D01*
X543251Y285752D01*
X542361Y286642D01*
X540581Y286642D01*
X539691Y285752D01*
X539691Y283973D01*
X540581Y283083D01*
X545538Y281304D02*
X545538Y286642D01*
X548208Y286642D01*
X549097Y285752D01*
X549097Y283973D01*
X548208Y283083D01*
X545538Y283083D01*
X551385Y281304D02*
X551385Y286642D01*
X554055Y286642D01*
X554944Y285752D01*
X554944Y283973D01*
X554055Y283083D01*
X551385Y283083D01*
X558122Y283083D02*
X559902Y283083D01*
X558122Y283083D02*
X557232Y283973D01*
X557232Y285752D01*
X558122Y286642D01*
X559902Y286642D01*
X560791Y285752D01*
X560791Y284863D01*
X557232Y284863D01*
X563079Y283083D02*
X563079Y286642D01*
X563079Y284863D02*
X564859Y286642D01*
X565749Y286642D01*
D12*
X164244Y9914D02*
X162465Y11693D01*
X158906Y11693D01*
X157126Y9914D01*
X157126Y8134D01*
X158906Y6355D01*
X162465Y6355D01*
X164244Y4575D01*
X164244Y2796D01*
X162465Y1016D01*
X158906Y1016D01*
X157126Y2796D01*
X168820Y1016D02*
X168820Y11693D01*
X168820Y1016D02*
X175938Y1016D01*
X182294Y11693D02*
X185853Y11693D01*
X182294Y11693D02*
X180514Y9914D01*
X180514Y2796D01*
X182294Y1016D01*
X185853Y1016D01*
X187632Y2796D01*
X187632Y9914D01*
X185853Y11693D01*
X195767Y11693D02*
X195767Y1016D01*
X192208Y11693D02*
X199326Y11693D01*
X215596Y11693D02*
X215596Y1016D01*
X220934Y1016D01*
X222714Y2796D01*
X222714Y9914D01*
X220934Y11693D01*
X215596Y11693D01*
X227290Y8134D02*
X227290Y1016D01*
X227290Y4575D02*
X230849Y8134D01*
X232628Y8134D01*
X237035Y8134D02*
X238814Y8134D01*
X238814Y1016D01*
X237035Y1016D02*
X240594Y1016D01*
X238814Y11693D02*
X238814Y13473D01*
X244831Y11693D02*
X246610Y11693D01*
X246610Y1016D01*
X244831Y1016D02*
X248390Y1016D01*
X252627Y11693D02*
X254406Y11693D01*
X254406Y1016D01*
X252627Y1016D02*
X256186Y1016D01*
X272117Y2796D02*
X272117Y8134D01*
X272117Y2796D02*
X273896Y1016D01*
X275676Y2796D01*
X277455Y1016D01*
X279235Y2796D01*
X279235Y8134D01*
X283811Y8134D02*
X285590Y8134D01*
X285590Y1016D01*
X283811Y1016D02*
X287370Y1016D01*
X285590Y11693D02*
X285590Y13473D01*
X293386Y9914D02*
X293386Y2796D01*
X295166Y1016D01*
X295166Y8134D02*
X291607Y8134D01*
X299403Y11693D02*
X299403Y1016D01*
X299403Y6355D02*
X301182Y8134D01*
X304741Y8134D01*
X306521Y6355D01*
X306521Y1016D01*
X324570Y8134D02*
X329909Y8134D01*
X324570Y8134D02*
X322791Y6355D01*
X322791Y2796D01*
X324570Y1016D01*
X329909Y1016D01*
X336264Y1016D02*
X339823Y1016D01*
X341603Y2796D01*
X341603Y6355D01*
X339823Y8134D01*
X336264Y8134D01*
X334485Y6355D01*
X334485Y2796D01*
X336264Y1016D01*
X346179Y-2543D02*
X346179Y8134D01*
X351517Y8134D01*
X353297Y6355D01*
X353297Y2796D01*
X351517Y1016D01*
X346179Y1016D01*
X357872Y-2543D02*
X357872Y8134D01*
X363211Y8134D01*
X364991Y6355D01*
X364991Y2796D01*
X363211Y1016D01*
X357872Y1016D01*
X371346Y1016D02*
X374905Y1016D01*
X371346Y1016D02*
X369566Y2796D01*
X369566Y6355D01*
X371346Y8134D01*
X374905Y8134D01*
X376685Y6355D01*
X376685Y4575D01*
X369566Y4575D01*
X381260Y1016D02*
X381260Y8134D01*
X381260Y4575D02*
X384819Y8134D01*
X386599Y8134D01*
D13*
X95250Y19050D02*
X95250Y44450D01*
X90760Y39960D01*
X95250Y44450D02*
X99740Y39960D01*
X158750Y44450D02*
X158750Y19050D01*
X154260Y39960D02*
X158750Y44450D01*
X163240Y39960D01*
X222250Y44450D02*
X222250Y19050D01*
X217760Y39960D02*
X222250Y44450D01*
X226740Y39960D01*
X285750Y44450D02*
X285750Y19050D01*
X281260Y39960D02*
X285750Y44450D01*
X290240Y39960D01*
X349250Y44450D02*
X349250Y19050D01*
X344760Y39960D02*
X349250Y44450D01*
X353740Y39960D01*
X412750Y44450D02*
X412750Y19050D01*
X408260Y39960D02*
X412750Y44450D01*
X417240Y39960D01*
D14*
X613787Y46225D02*
X614508Y46945D01*
X613787Y46225D02*
X613787Y44785D01*
X614508Y44064D01*
X615228Y44064D01*
X615948Y44785D01*
X615948Y46225D01*
X616668Y46945D01*
X617389Y46945D01*
X618109Y46225D01*
X618109Y44785D01*
X617389Y44064D01*
X613787Y48742D02*
X613787Y49462D01*
X618109Y49462D01*
X618109Y48742D02*
X618109Y50182D01*
X618109Y52580D02*
X618109Y54021D01*
X617389Y54741D01*
X615948Y54741D01*
X615228Y54021D01*
X615228Y52580D01*
X615948Y51860D01*
X617389Y51860D01*
X618109Y52580D01*
X617389Y57258D02*
X614508Y57258D01*
X617389Y57258D02*
X618109Y57978D01*
X615228Y57978D02*
X615228Y56538D01*
X613787Y64334D02*
X618109Y64334D01*
X618109Y66495D01*
X617389Y67215D01*
X614508Y67215D01*
X613787Y66495D01*
X613787Y64334D01*
X615228Y69011D02*
X618109Y69011D01*
X616668Y69011D02*
X615228Y70452D01*
X615228Y71172D01*
X615228Y72909D02*
X615228Y73630D01*
X618109Y73630D01*
X618109Y74350D02*
X618109Y72909D01*
X613787Y73630D02*
X613067Y73630D01*
X613787Y76028D02*
X613787Y76748D01*
X618109Y76748D01*
X618109Y76028D02*
X618109Y77468D01*
X613787Y79146D02*
X613787Y79866D01*
X618109Y79866D01*
X618109Y79146D02*
X618109Y80587D01*
X617389Y86942D02*
X615228Y86942D01*
X617389Y86942D02*
X618109Y87662D01*
X617389Y88383D01*
X618109Y89103D01*
X617389Y89823D01*
X615228Y89823D01*
X615228Y91620D02*
X615228Y92340D01*
X618109Y92340D01*
X618109Y91620D02*
X618109Y93060D01*
X613787Y92340D02*
X613067Y92340D01*
X614508Y95458D02*
X617389Y95458D01*
X618109Y96179D01*
X615228Y96179D02*
X615228Y94738D01*
X613787Y97856D02*
X618109Y97856D01*
X615948Y97856D02*
X615228Y98577D01*
X615228Y100017D01*
X615948Y100738D01*
X618109Y100738D01*
X615228Y107932D02*
X615228Y110093D01*
X615228Y107932D02*
X615948Y107212D01*
X617389Y107212D01*
X618109Y107932D01*
X618109Y110093D01*
X618109Y112609D02*
X618109Y114050D01*
X617389Y114770D01*
X615948Y114770D01*
X615228Y114050D01*
X615228Y112609D01*
X615948Y111889D01*
X617389Y111889D01*
X618109Y112609D01*
X619550Y116567D02*
X615228Y116567D01*
X615228Y118728D01*
X615948Y119448D01*
X617389Y119448D01*
X618109Y118728D01*
X618109Y116567D01*
X619550Y121244D02*
X615228Y121244D01*
X615228Y123405D01*
X615948Y124125D01*
X617389Y124125D01*
X618109Y123405D01*
X618109Y121244D01*
X618109Y126642D02*
X618109Y128083D01*
X618109Y126642D02*
X617389Y125922D01*
X615948Y125922D01*
X615228Y126642D01*
X615228Y128083D01*
X615948Y128803D01*
X616668Y128803D01*
X616668Y125922D01*
X618109Y130600D02*
X615228Y130600D01*
X616668Y130600D02*
X615228Y132040D01*
X615228Y132760D01*
M02*
